%TF.GenerationSoftware,KiCad,Pcbnew,(6.0.0-0)*%
%TF.CreationDate,2022-02-05T18:01:00-08:00*%
%TF.ProjectId,pca9633pw-breakout,70636139-3633-4337-9077-2d627265616b,v1*%
%TF.SameCoordinates,Original*%
%TF.FileFunction,Legend,Top*%
%TF.FilePolarity,Positive*%
%FSLAX46Y46*%
G04 Gerber Fmt 4.6, Leading zero omitted, Abs format (unit mm)*
G04 Created by KiCad (PCBNEW (6.0.0-0)) date 2022-02-05 18:01:00*
%MOMM*%
%LPD*%
G01*
G04 APERTURE LIST*
%ADD10C,0.150000*%
%ADD11C,0.120000*%
G04 APERTURE END LIST*
D10*
X155295714Y-84605714D02*
X155533809Y-85272380D01*
X155771904Y-84605714D01*
X156676666Y-85272380D02*
X156105238Y-85272380D01*
X156390952Y-85272380D02*
X156390952Y-84272380D01*
X156295714Y-84415238D01*
X156200476Y-84510476D01*
X156105238Y-84558095D01*
X154132976Y-81737380D02*
X154132976Y-80737380D01*
X154704404Y-81737380D01*
X154704404Y-80737380D01*
X155752023Y-81642142D02*
X155704404Y-81689761D01*
X155561547Y-81737380D01*
X155466309Y-81737380D01*
X155323452Y-81689761D01*
X155228214Y-81594523D01*
X155180595Y-81499285D01*
X155132976Y-81308809D01*
X155132976Y-81165952D01*
X155180595Y-80975476D01*
X155228214Y-80880238D01*
X155323452Y-80785000D01*
X155466309Y-80737380D01*
X155561547Y-80737380D01*
X155704404Y-80785000D01*
X155752023Y-80832619D01*
X155132976Y-78197380D02*
X155752023Y-78197380D01*
X155418690Y-78578333D01*
X155561547Y-78578333D01*
X155656785Y-78625952D01*
X155704404Y-78673571D01*
X155752023Y-78768809D01*
X155752023Y-79006904D01*
X155704404Y-79102142D01*
X155656785Y-79149761D01*
X155561547Y-79197380D01*
X155275833Y-79197380D01*
X155180595Y-79149761D01*
X155132976Y-79102142D01*
X155180595Y-75752619D02*
X155228214Y-75705000D01*
X155323452Y-75657380D01*
X155561547Y-75657380D01*
X155656785Y-75705000D01*
X155704404Y-75752619D01*
X155752023Y-75847857D01*
X155752023Y-75943095D01*
X155704404Y-76085952D01*
X155132976Y-76657380D01*
X155752023Y-76657380D01*
X155752023Y-74117380D02*
X155180595Y-74117380D01*
X155466309Y-74117380D02*
X155466309Y-73117380D01*
X155371071Y-73260238D01*
X155275833Y-73355476D01*
X155180595Y-73403095D01*
X155418690Y-70577380D02*
X155513928Y-70577380D01*
X155609166Y-70625000D01*
X155656785Y-70672619D01*
X155704404Y-70767857D01*
X155752023Y-70958333D01*
X155752023Y-71196428D01*
X155704404Y-71386904D01*
X155656785Y-71482142D01*
X155609166Y-71529761D01*
X155513928Y-71577380D01*
X155418690Y-71577380D01*
X155323452Y-71529761D01*
X155275833Y-71482142D01*
X155228214Y-71386904D01*
X155180595Y-71196428D01*
X155180595Y-70958333D01*
X155228214Y-70767857D01*
X155275833Y-70672619D01*
X155323452Y-70625000D01*
X155418690Y-70577380D01*
X144106904Y-80872500D02*
X144011666Y-80824880D01*
X143868809Y-80824880D01*
X143725951Y-80872500D01*
X143630713Y-80967738D01*
X143583094Y-81062976D01*
X143535475Y-81253452D01*
X143535475Y-81396309D01*
X143583094Y-81586785D01*
X143630713Y-81682023D01*
X143725951Y-81777261D01*
X143868809Y-81824880D01*
X143964047Y-81824880D01*
X144106904Y-81777261D01*
X144154523Y-81729642D01*
X144154523Y-81396309D01*
X143964047Y-81396309D01*
X144583094Y-81824880D02*
X144583094Y-80824880D01*
X145154523Y-81824880D01*
X145154523Y-80824880D01*
X145630713Y-81824880D02*
X145630713Y-80824880D01*
X145868809Y-80824880D01*
X146011666Y-80872500D01*
X146106904Y-80967738D01*
X146154523Y-81062976D01*
X146202142Y-81253452D01*
X146202142Y-81396309D01*
X146154523Y-81586785D01*
X146106904Y-81682023D01*
X146011666Y-81777261D01*
X145868809Y-81824880D01*
X145630713Y-81824880D01*
X143440237Y-78348630D02*
X143773571Y-79348630D01*
X144106904Y-78348630D01*
X144440237Y-79348630D02*
X144440237Y-78348630D01*
X144678332Y-78348630D01*
X144821190Y-78396250D01*
X144916428Y-78491488D01*
X144964047Y-78586726D01*
X145011666Y-78777202D01*
X145011666Y-78920059D01*
X144964047Y-79110535D01*
X144916428Y-79205773D01*
X144821190Y-79301011D01*
X144678332Y-79348630D01*
X144440237Y-79348630D01*
X145440237Y-79348630D02*
X145440237Y-78348630D01*
X145678332Y-78348630D01*
X145821190Y-78396250D01*
X145916428Y-78491488D01*
X145964047Y-78586726D01*
X146011666Y-78777202D01*
X146011666Y-78920059D01*
X145964047Y-79110535D01*
X145916428Y-79205773D01*
X145821190Y-79301011D01*
X145678332Y-79348630D01*
X145440237Y-79348630D01*
X143367500Y-75590000D02*
X144415119Y-75590000D01*
X143796071Y-75872380D02*
X143986547Y-75872380D01*
X144081785Y-75920000D01*
X144177023Y-76015238D01*
X144224642Y-76205714D01*
X144224642Y-76539047D01*
X144177023Y-76729523D01*
X144081785Y-76824761D01*
X143986547Y-76872380D01*
X143796071Y-76872380D01*
X143700833Y-76824761D01*
X143605595Y-76729523D01*
X143557976Y-76539047D01*
X143557976Y-76205714D01*
X143605595Y-76015238D01*
X143700833Y-75920000D01*
X143796071Y-75872380D01*
X144415119Y-75590000D02*
X145319880Y-75590000D01*
X144653214Y-76348571D02*
X144986547Y-76348571D01*
X145129404Y-76872380D02*
X144653214Y-76872380D01*
X144653214Y-75872380D01*
X145129404Y-75872380D01*
X143535475Y-74093511D02*
X143678332Y-74141130D01*
X143916428Y-74141130D01*
X144011666Y-74093511D01*
X144059285Y-74045892D01*
X144106904Y-73950654D01*
X144106904Y-73855416D01*
X144059285Y-73760178D01*
X144011666Y-73712559D01*
X143916428Y-73664940D01*
X143725952Y-73617321D01*
X143630713Y-73569702D01*
X143583094Y-73522083D01*
X143535475Y-73426845D01*
X143535475Y-73331607D01*
X143583094Y-73236369D01*
X143630713Y-73188750D01*
X143725952Y-73141130D01*
X143964047Y-73141130D01*
X144106904Y-73188750D01*
X145106904Y-74045892D02*
X145059285Y-74093511D01*
X144916428Y-74141130D01*
X144821190Y-74141130D01*
X144678332Y-74093511D01*
X144583094Y-73998273D01*
X144535475Y-73903035D01*
X144487856Y-73712559D01*
X144487856Y-73569702D01*
X144535475Y-73379226D01*
X144583094Y-73283988D01*
X144678332Y-73188750D01*
X144821190Y-73141130D01*
X144916428Y-73141130D01*
X145059285Y-73188750D01*
X145106904Y-73236369D01*
X146011666Y-74141130D02*
X145535475Y-74141130D01*
X145535475Y-73141130D01*
X143557976Y-71617261D02*
X143700833Y-71664880D01*
X143938928Y-71664880D01*
X144034166Y-71617261D01*
X144081785Y-71569642D01*
X144129404Y-71474404D01*
X144129404Y-71379166D01*
X144081785Y-71283928D01*
X144034166Y-71236309D01*
X143938928Y-71188690D01*
X143748452Y-71141071D01*
X143653214Y-71093452D01*
X143605595Y-71045833D01*
X143557976Y-70950595D01*
X143557976Y-70855357D01*
X143605595Y-70760119D01*
X143653214Y-70712500D01*
X143748452Y-70664880D01*
X143986547Y-70664880D01*
X144129404Y-70712500D01*
X144557976Y-71664880D02*
X144557976Y-70664880D01*
X144796071Y-70664880D01*
X144938928Y-70712500D01*
X145034166Y-70807738D01*
X145081785Y-70902976D01*
X145129404Y-71093452D01*
X145129404Y-71236309D01*
X145081785Y-71426785D01*
X145034166Y-71522023D01*
X144938928Y-71617261D01*
X144796071Y-71664880D01*
X144557976Y-71664880D01*
X145510357Y-71379166D02*
X145986547Y-71379166D01*
X145415119Y-71664880D02*
X145748452Y-70664880D01*
X146081785Y-71664880D01*
%TO.C,U1*%
X149098095Y-70572380D02*
X149098095Y-71381904D01*
X149145714Y-71477142D01*
X149193333Y-71524761D01*
X149288571Y-71572380D01*
X149479047Y-71572380D01*
X149574285Y-71524761D01*
X149621904Y-71477142D01*
X149669523Y-71381904D01*
X149669523Y-70572380D01*
X150669523Y-71572380D02*
X150098095Y-71572380D01*
X150383809Y-71572380D02*
X150383809Y-70572380D01*
X150288571Y-70715238D01*
X150193333Y-70810476D01*
X150098095Y-70858095D01*
X145613333Y-68122380D02*
X145613333Y-67122380D01*
X145994285Y-67122380D01*
X146089523Y-67170000D01*
X146137142Y-67217619D01*
X146184761Y-67312857D01*
X146184761Y-67455714D01*
X146137142Y-67550952D01*
X146089523Y-67598571D01*
X145994285Y-67646190D01*
X145613333Y-67646190D01*
X147184761Y-68027142D02*
X147137142Y-68074761D01*
X146994285Y-68122380D01*
X146899047Y-68122380D01*
X146756190Y-68074761D01*
X146660952Y-67979523D01*
X146613333Y-67884285D01*
X146565714Y-67693809D01*
X146565714Y-67550952D01*
X146613333Y-67360476D01*
X146660952Y-67265238D01*
X146756190Y-67170000D01*
X146899047Y-67122380D01*
X146994285Y-67122380D01*
X147137142Y-67170000D01*
X147184761Y-67217619D01*
X147565714Y-67836666D02*
X148041904Y-67836666D01*
X147470476Y-68122380D02*
X147803809Y-67122380D01*
X148137142Y-68122380D01*
X148518095Y-68122380D02*
X148708571Y-68122380D01*
X148803809Y-68074761D01*
X148851428Y-68027142D01*
X148946666Y-67884285D01*
X148994285Y-67693809D01*
X148994285Y-67312857D01*
X148946666Y-67217619D01*
X148899047Y-67170000D01*
X148803809Y-67122380D01*
X148613333Y-67122380D01*
X148518095Y-67170000D01*
X148470476Y-67217619D01*
X148422857Y-67312857D01*
X148422857Y-67550952D01*
X148470476Y-67646190D01*
X148518095Y-67693809D01*
X148613333Y-67741428D01*
X148803809Y-67741428D01*
X148899047Y-67693809D01*
X148946666Y-67646190D01*
X148994285Y-67550952D01*
X149851428Y-67122380D02*
X149660952Y-67122380D01*
X149565714Y-67170000D01*
X149518095Y-67217619D01*
X149422857Y-67360476D01*
X149375238Y-67550952D01*
X149375238Y-67931904D01*
X149422857Y-68027142D01*
X149470476Y-68074761D01*
X149565714Y-68122380D01*
X149756190Y-68122380D01*
X149851428Y-68074761D01*
X149899047Y-68027142D01*
X149946666Y-67931904D01*
X149946666Y-67693809D01*
X149899047Y-67598571D01*
X149851428Y-67550952D01*
X149756190Y-67503333D01*
X149565714Y-67503333D01*
X149470476Y-67550952D01*
X149422857Y-67598571D01*
X149375238Y-67693809D01*
X150280000Y-67122380D02*
X150899047Y-67122380D01*
X150565714Y-67503333D01*
X150708571Y-67503333D01*
X150803809Y-67550952D01*
X150851428Y-67598571D01*
X150899047Y-67693809D01*
X150899047Y-67931904D01*
X150851428Y-68027142D01*
X150803809Y-68074761D01*
X150708571Y-68122380D01*
X150422857Y-68122380D01*
X150327619Y-68074761D01*
X150280000Y-68027142D01*
X151232380Y-67122380D02*
X151851428Y-67122380D01*
X151518095Y-67503333D01*
X151660952Y-67503333D01*
X151756190Y-67550952D01*
X151803809Y-67598571D01*
X151851428Y-67693809D01*
X151851428Y-67931904D01*
X151803809Y-68027142D01*
X151756190Y-68074761D01*
X151660952Y-68122380D01*
X151375238Y-68122380D01*
X151280000Y-68074761D01*
X151232380Y-68027142D01*
X152280000Y-68122380D02*
X152280000Y-67122380D01*
X152660952Y-67122380D01*
X152756190Y-67170000D01*
X152803809Y-67217619D01*
X152851428Y-67312857D01*
X152851428Y-67455714D01*
X152803809Y-67550952D01*
X152756190Y-67598571D01*
X152660952Y-67646190D01*
X152280000Y-67646190D01*
X153184761Y-67122380D02*
X153422857Y-68122380D01*
X153613333Y-67408095D01*
X153803809Y-68122380D01*
X154041904Y-67122380D01*
%TO.C,R3*%
X152253333Y-81212380D02*
X151920000Y-80736190D01*
X151681904Y-81212380D02*
X151681904Y-80212380D01*
X152062857Y-80212380D01*
X152158095Y-80260000D01*
X152205714Y-80307619D01*
X152253333Y-80402857D01*
X152253333Y-80545714D01*
X152205714Y-80640952D01*
X152158095Y-80688571D01*
X152062857Y-80736190D01*
X151681904Y-80736190D01*
X152586666Y-80212380D02*
X153205714Y-80212380D01*
X152872380Y-80593333D01*
X153015238Y-80593333D01*
X153110476Y-80640952D01*
X153158095Y-80688571D01*
X153205714Y-80783809D01*
X153205714Y-81021904D01*
X153158095Y-81117142D01*
X153110476Y-81164761D01*
X153015238Y-81212380D01*
X152729523Y-81212380D01*
X152634285Y-81164761D01*
X152586666Y-81117142D01*
%TO.C,R2*%
X149708333Y-81212380D02*
X149375000Y-80736190D01*
X149136904Y-81212380D02*
X149136904Y-80212380D01*
X149517857Y-80212380D01*
X149613095Y-80260000D01*
X149660714Y-80307619D01*
X149708333Y-80402857D01*
X149708333Y-80545714D01*
X149660714Y-80640952D01*
X149613095Y-80688571D01*
X149517857Y-80736190D01*
X149136904Y-80736190D01*
X150089285Y-80307619D02*
X150136904Y-80260000D01*
X150232142Y-80212380D01*
X150470238Y-80212380D01*
X150565476Y-80260000D01*
X150613095Y-80307619D01*
X150660714Y-80402857D01*
X150660714Y-80498095D01*
X150613095Y-80640952D01*
X150041666Y-81212380D01*
X150660714Y-81212380D01*
%TO.C,R1*%
X147163333Y-81342380D02*
X146830000Y-80866190D01*
X146591904Y-81342380D02*
X146591904Y-80342380D01*
X146972857Y-80342380D01*
X147068095Y-80390000D01*
X147115714Y-80437619D01*
X147163333Y-80532857D01*
X147163333Y-80675714D01*
X147115714Y-80770952D01*
X147068095Y-80818571D01*
X146972857Y-80866190D01*
X146591904Y-80866190D01*
X148115714Y-81342380D02*
X147544285Y-81342380D01*
X147830000Y-81342380D02*
X147830000Y-80342380D01*
X147734761Y-80485238D01*
X147639523Y-80580476D01*
X147544285Y-80628095D01*
%TO.C,J3*%
X157146666Y-68247380D02*
X157146666Y-68961666D01*
X157099047Y-69104523D01*
X157003809Y-69199761D01*
X156860952Y-69247380D01*
X156765714Y-69247380D01*
X157527619Y-68247380D02*
X158146666Y-68247380D01*
X157813333Y-68628333D01*
X157956190Y-68628333D01*
X158051428Y-68675952D01*
X158099047Y-68723571D01*
X158146666Y-68818809D01*
X158146666Y-69056904D01*
X158099047Y-69152142D01*
X158051428Y-69199761D01*
X157956190Y-69247380D01*
X157670476Y-69247380D01*
X157575238Y-69199761D01*
X157527619Y-69152142D01*
%TO.C,J2*%
X149526666Y-86537380D02*
X149526666Y-87251666D01*
X149479047Y-87394523D01*
X149383809Y-87489761D01*
X149240952Y-87537380D01*
X149145714Y-87537380D01*
X149955238Y-86632619D02*
X150002857Y-86585000D01*
X150098095Y-86537380D01*
X150336190Y-86537380D01*
X150431428Y-86585000D01*
X150479047Y-86632619D01*
X150526666Y-86727857D01*
X150526666Y-86823095D01*
X150479047Y-86965952D01*
X149907619Y-87537380D01*
X150526666Y-87537380D01*
%TO.C,J1*%
X141906666Y-68247380D02*
X141906666Y-68961666D01*
X141859047Y-69104523D01*
X141763809Y-69199761D01*
X141620952Y-69247380D01*
X141525714Y-69247380D01*
X142906666Y-69247380D02*
X142335238Y-69247380D01*
X142620952Y-69247380D02*
X142620952Y-68247380D01*
X142525714Y-68390238D01*
X142430476Y-68485476D01*
X142335238Y-68533095D01*
D11*
%TO.C,U1*%
X149860000Y-68385000D02*
X146260000Y-68385000D01*
X149860000Y-68385000D02*
X152060000Y-68385000D01*
X149860000Y-73855000D02*
X147660000Y-73855000D01*
X149860000Y-73855000D02*
X152060000Y-73855000D01*
%TO.C,R3*%
X151490000Y-78492064D02*
X151490000Y-77037936D01*
X153310000Y-78492064D02*
X153310000Y-77037936D01*
%TO.C,R2*%
X150770000Y-78492064D02*
X150770000Y-77037936D01*
X148950000Y-78492064D02*
X148950000Y-77037936D01*
%TO.C,R1*%
X148230000Y-78492064D02*
X148230000Y-77037936D01*
X146410000Y-78492064D02*
X146410000Y-77037936D01*
%TO.C,J3*%
X156150000Y-82615000D02*
X158810000Y-82615000D01*
X156150000Y-72395000D02*
X156150000Y-82615000D01*
X158810000Y-72395000D02*
X158810000Y-82615000D01*
X156150000Y-72395000D02*
X158810000Y-72395000D01*
X156150000Y-71125000D02*
X156150000Y-69795000D01*
X156150000Y-69795000D02*
X157480000Y-69795000D01*
%TO.C,J2*%
X152970000Y-83825000D02*
X152970000Y-82675000D01*
X152970000Y-82675000D02*
X151920000Y-82675000D01*
X151920000Y-82675000D02*
X151920000Y-81685000D01*
X146750000Y-83825000D02*
X146750000Y-82675000D01*
X146750000Y-82675000D02*
X147800000Y-82675000D01*
X151800000Y-85795000D02*
X147920000Y-85795000D01*
%TO.C,J1*%
X140910000Y-82615000D02*
X143570000Y-82615000D01*
X140910000Y-72395000D02*
X140910000Y-82615000D01*
X143570000Y-72395000D02*
X143570000Y-82615000D01*
X140910000Y-72395000D02*
X143570000Y-72395000D01*
X140910000Y-71125000D02*
X140910000Y-69795000D01*
X140910000Y-69795000D02*
X142240000Y-69795000D01*
%TD*%
M02*
